<svg data-v-423bf9ae="" xmlns="http://www.w3.org/2000/svg" viewBox="0 0 474 107" class="iconLeft"><!----><!----><!----><g data-v-423bf9ae="" id="e8e7cd36-5460-4ca9-8ccb-2f68815761c9" fill="#FFFFFF" transform="matrix(6.741572600274294,0,0,6.741572600274294,101.71705989739402,-15.274830024571628)"><path d="M0.12 8.47L0.08 5.89L8.20 5.89L7.97 8.58L7.02 8.42L6.67 6.79L5.00 6.79L5.00 13.30L6.32 13.60L6.22 14.40L1.86 14.40L1.93 13.67L3.11 13.27L3.11 6.79L1.49 6.79L1.01 8.60L0.12 8.47ZM11.84 10.23L11.84 10.23L11.84 10.23Q11.84 9.12 11.08 9.12L11.08 9.12L11.08 9.12Q10.68 9.12 10.41 9.59L10.41 9.59L10.41 9.59Q10.14 10.07 10.12 10.88L10.12 10.88L11.80 10.72L11.80 10.72Q11.84 10.55 11.84 10.23ZM8.42 11.46L8.42 11.46L8.42 11.46Q8.42 10.72 8.69 10.07L8.69 10.07L8.69 10.07Q8.96 9.42 9.40 9.00L9.40 9.00L9.40 9.00Q10.34 8.08 11.50 8.08L11.50 8.08L11.50 8.08Q12.44 8.08 13.00 8.72L13.00 8.72L13.00 8.72Q13.56 9.35 13.56 10.43L13.56 10.43L13.56 10.43Q13.56 10.94 13.43 11.48L13.43 11.48L10.15 11.55L10.15 11.55Q10.19 12.33 10.67 12.85L10.67 12.85L10.67 12.85Q11.14 13.37 12.01 13.37L12.01 13.37L12.01 13.37Q12.89 13.37 13.58 12.99L13.58 12.99L13.72 13.62L13.72 13.62Q13.30 14.12 12.60 14.36L12.60 14.36L12.60 14.36Q11.90 14.60 11.16 14.60L11.16 14.60L11.16 14.60Q9.97 14.60 9.19 13.78L9.19 13.78L9.19 13.78Q8.42 12.96 8.42 11.46ZM14.03 11.53L14.03 11.53L14.03 11.53Q14.03 10.73 14.33 10.05L14.33 10.05L14.33 10.05Q14.62 9.37 15.09 8.93L15.09 8.93L15.09 8.93Q16.11 8.01 17.32 8.01L17.32 8.01L17.32 8.01Q18.16 8.01 18.65 8.40L18.65 8.40L18.65 8.40Q19.13 8.78 19.13 9.29L19.13 9.29L19.13 9.29Q19.13 10.22 18.00 10.32L18.00 10.32L18.00 10.32Q17.76 9.64 17.51 9.31L17.51 9.31L17.51 9.31Q17.25 8.99 16.90 8.99L16.90 8.99L16.90 8.99Q16.37 8.99 16.08 9.47L16.08 9.47L16.08 9.47Q15.79 9.96 15.79 10.90L15.79 10.90L15.79 10.90Q15.79 11.79 16.24 12.56L16.24 12.56L16.24 12.56Q16.45 12.94 16.82 13.17L16.82 13.17L16.82 13.17Q17.18 13.41 17.65 13.41L17.65 13.41L17.65 13.41Q18.42 13.41 19.15 12.95L19.15 12.95L19.37 13.51L19.37 13.51Q19.10 13.97 18.44 14.28L18.44 14.28L18.44 14.28Q17.78 14.60 17.04 14.60L17.04 14.60L17.04 14.60Q15.57 14.60 14.80 13.75L14.80 13.75L14.80 13.75Q14.03 12.90 14.03 11.53ZM23.04 14.40L19.53 14.40L19.63 13.60L20.64 13.22L20.64 7.22L19.50 6.69L19.63 5.87L21.95 5.70L22.24 5.97L22.24 8.42L22.11 9.24L22.20 9.26L22.20 9.26Q23.24 8.15 24.23 8.15L24.23 8.15L24.23 8.15Q25.03 8.15 25.46 8.61L25.46 8.61L25.46 8.61Q25.90 9.07 25.90 10.17L25.90 10.17L25.90 13.23L26.91 13.57L26.79 14.40L23.76 14.40L23.80 13.62L24.26 13.23L24.27 10.95L24.27 10.95Q24.27 10.31 24.02 10.02L24.02 10.02L24.02 10.02Q23.76 9.73 23.28 9.73L23.28 9.73L23.28 9.73Q22.79 9.73 22.29 10.21L22.29 10.21L22.29 13.22L23.18 13.56L23.04 14.40ZM34.33 14.40L27.15 14.40L27.23 13.67L28.34 13.24L28.34 7.16L27.11 6.65L27.22 5.89L31.64 5.89L31.54 6.65L30.28 7.15L30.28 13.38L32.72 13.46L33.76 11.68L34.62 11.80L34.33 14.40ZM37.47 11.71L37.47 11.71Q37.47 12.41 37.67 12.70L37.67 12.70L37.67 12.70Q37.87 13.00 38.36 13.00L38.36 13.00L38.36 13.00Q38.84 13.00 39.30 12.56L39.30 12.56L39.30 9.86L38.36 9.46L38.51 8.44L40.74 8.20L40.99 8.46L40.99 12.39L40.99 12.39Q40.99 12.88 41.17 13.07L41.17 13.07L41.17 13.07Q41.34 13.26 41.83 13.40L41.83 13.40L42.08 13.47L41.97 14.33L41.97 14.33Q41.24 14.59 40.65 14.59L40.65 14.59L40.65 14.59Q40.06 14.59 39.74 14.33L39.74 14.33L39.74 14.33Q39.43 14.08 39.43 13.59L39.43 13.59L39.43 13.51L39.34 13.49L39.34 13.49Q39.01 14.02 38.51 14.30L38.51 14.30L38.51 14.30Q38.01 14.58 37.44 14.58L37.44 14.58L37.44 14.58Q36.57 14.58 36.17 14.11L36.17 14.11L36.17 14.11Q35.77 13.64 35.77 12.57L35.77 12.57L35.77 9.82L34.87 9.27L35.03 8.37L37.19 8.22L37.47 8.49L37.47 11.71ZM45.79 14.40L42.25 14.40L42.35 13.61L43.35 13.22L43.35 9.75L42.33 9.29L42.46 8.46L44.86 8.22L45.05 8.42L44.91 9.21L45.00 9.23L45.00 9.23Q45.99 8.15 47.01 8.15L47.01 8.15L47.01 8.15Q47.80 8.15 48.24 8.64L48.24 8.64L48.24 8.64Q48.68 9.13 48.68 10.10L48.68 10.10L48.68 13.22L49.68 13.56L49.57 14.40L46.54 14.40L46.57 13.61L47.04 13.22L47.04 10.96L47.04 10.96Q47.04 9.73 46.12 9.73L46.12 9.73L46.12 9.73Q45.48 9.73 45.01 10.20L45.01 10.20L45.01 13.22L45.94 13.56L45.79 14.40ZM53.32 10.23L53.32 10.23L53.32 10.23Q53.32 9.12 52.56 9.12L52.56 9.12L52.56 9.12Q52.17 9.12 51.90 9.59L51.90 9.59L51.90 9.59Q51.63 10.07 51.60 10.88L51.60 10.88L53.28 10.72L53.28 10.72Q53.32 10.55 53.32 10.23ZM49.90 11.46L49.90 11.46L49.90 11.46Q49.90 10.72 50.17 10.07L50.17 10.07L50.17 10.07Q50.44 9.42 50.88 9.00L50.88 9.00L50.88 9.00Q51.82 8.08 52.99 8.08L52.99 8.08L52.99 8.08Q53.92 8.08 54.48 8.72L54.48 8.72L54.48 8.72Q55.04 9.35 55.04 10.43L55.04 10.43L55.04 10.43Q55.04 10.94 54.91 11.48L54.91 11.48L51.63 11.55L51.63 11.55Q51.67 12.33 52.15 12.85L52.15 12.85L52.15 12.85Q52.62 13.37 53.49 13.37L53.49 13.37L53.49 13.37Q54.37 13.37 55.06 12.99L55.06 12.99L55.20 13.62L55.20 13.62Q54.78 14.12 54.08 14.36L54.08 14.36L54.08 14.36Q53.38 14.60 52.64 14.60L52.64 14.60L52.64 14.60Q51.45 14.60 50.67 13.78L50.67 13.78L50.67 13.78Q49.90 12.96 49.90 11.46Z"></path></g><!----><g data-v-423bf9ae="" id="048e9e2b-c897-49c2-b1cf-828f98889fd8" transform="matrix(1.0868111504448785,0,0,1.0868111504448785,-13.255261890115804,-0.23894260335429607)" stroke="none" fill="#0076DD"><g clip-rule="evenodd"><path d="M12.983 10.59l17.018 88.223-5.872-59.049 29.021-1.892-.054-9.883L64.549 1 53.622 18.977z"></path><path d="M59.389 54.548l5.16-53.541-8.74 39.716-19.612 1.045 1.57 20.462-7.766 36.583 12.057-39.899z"></path><path d="M62.8 67.182l.549-10.453-15.979 3.755-.032 11.797-17.337 26.532 21.68-27.616zM65.711 62.394l14.841-4.731 1.509-12.532-15.899 2.095zM72.07 44.502l10.988-1.417 1.581-10.278-8.079-.373L64.549 1l8.43 30.967z"></path><path d="M87.413 31.294l1.256-9.506-9.544-2.694L64.549 1l14.483 22.437-.422 7z"></path></g></g><!----></svg>